<svg width="40" height="18" viewBox="0 0 40 18" fill="none" xmlns="http://www.w3.org/2000/svg">
<path d="M9.07448 12.2344L6.48303 14.168C6.00847 14.5223 5.34745 14.1312 5.42458 13.5476L5.84948 10.3447L3.20885 8.47183C2.72681 8.13027 2.89461 7.37713 3.47399 7.27382L6.65233 6.68968L7.61822 3.60823C7.79148 3.0488 8.56117 2.97384 8.83911 3.48933L10.3807 6.31991L13.612 6.27986C14.2005 6.26945 14.5104 6.97607 14.1033 7.40421L11.8737 9.75136L12.9085 12.8121C13.0968 13.3698 12.5237 13.8811 11.9897 13.625L9.07448 12.2344Z" fill="white"/>
<path d="M22.692 11.7617L20.3883 12.5189C19.9664 12.6578 19.5895 12.2221 19.7835 11.8255L20.8491 9.64915L19.4178 7.68788C19.1564 7.33009 19.4553 6.83452 19.8919 6.89917L22.2913 7.2414L23.7127 5.28038C23.9692 4.92387 24.5344 5.05404 24.6092 5.48686L25.0307 7.86719L27.3381 8.60896C27.759 8.74182 27.811 9.31819 27.4195 9.52561L25.2744 10.6632L25.2807 13.0864C25.2817 13.5279 24.7522 13.7549 24.4335 13.4455L22.692 11.7617Z" fill="white"/>
<g clip-path="url(#clip0_1192_7937)">
<path d="M33.3036 13.9437L31.6914 14.0634C31.3961 14.0854 31.2223 13.743 31.4115 13.5176L32.4508 12.2807L31.84 10.7817C31.7284 10.5082 32.0014 10.2356 32.2735 10.3476L33.7709 10.9547L35.0057 9.91438C35.229 9.72495 35.5738 9.90001 35.5526 10.1921L35.4427 11.7999L36.8164 12.6507C37.0674 12.8043 37.0084 13.1856 36.7217 13.2568L35.151 13.6481L34.7656 15.2169C34.6953 15.5027 34.3162 15.5645 34.1598 15.3131L33.3036 13.9437Z" fill="white"/>
</g>
<defs>
<clipPath id="clip0_1192_7937">
<rect width="8" height="8" fill="white" transform="matrix(-0.891636 -0.452753 -0.452753 0.891636 39.4766 10.6221)"/>
</clipPath>
</defs>
</svg>
