<svg width="40" height="18" viewBox="0 0 40 18" fill="none" xmlns="http://www.w3.org/2000/svg">
<path d="M30.3943 12.2344L32.9857 14.168C33.4603 14.5223 34.1213 14.1312 34.0442 13.5476L33.6193 10.3447L36.2599 8.47183C36.7419 8.13027 36.5741 7.37713 35.9948 7.27382L32.8164 6.68968L31.8505 3.60823C31.6773 3.0488 30.9076 2.97384 30.6296 3.48933L29.088 6.31991L25.8567 6.27986C25.2683 6.26945 24.9583 6.97607 25.3654 7.40421L27.5951 9.75136L26.5602 12.8121C26.3719 13.3698 26.9451 13.8811 27.4791 13.625L30.3943 12.2344Z" fill="white"/>
<g clip-path="url(#clip0_1192_7930)">
<path d="M16.7845 11.7617L19.0883 12.5189C19.5102 12.6578 19.887 12.2221 19.6931 11.8255L18.6274 9.64915L20.0588 7.68788C20.3202 7.33009 20.0213 6.83452 19.5847 6.89917L17.1853 7.2414L15.7639 5.28038C15.5073 4.92387 14.9421 5.05404 14.8674 5.48686L14.4458 7.86719L12.1385 8.60896C11.7175 8.74182 11.6656 9.31819 12.0571 9.52561L14.2021 10.6632L14.1958 13.0864C14.1949 13.5279 14.7243 13.7549 15.043 13.4455L16.7845 11.7617Z" fill="white"/>
</g>
<g clip-path="url(#clip1_1192_7930)">
<path d="M6.17293 13.9437L7.78516 14.0634C8.08046 14.0854 8.25424 13.743 8.06501 13.5176L7.02575 12.2807L7.6366 10.7817C7.7482 10.5082 7.47519 10.2356 7.20308 10.3476L5.70567 10.9547L4.47085 9.91438C4.24755 9.72495 3.90279 9.90001 3.92398 10.1921L4.03383 11.7999L2.66017 12.6507C2.40919 12.8043 2.4682 13.1856 2.75487 13.2568L4.32555 13.6481L4.71095 15.2169C4.7813 15.5027 5.16033 15.5645 5.31679 15.3131L6.17293 13.9437Z" fill="white"/>
</g>
<defs>
<clipPath id="clip0_1192_7930">
<rect width="12" height="12" fill="white" transform="translate(9 4.69336) rotate(-12.9696)"/>
</clipPath>
<clipPath id="clip1_1192_7930">
<rect width="8" height="8" fill="white" transform="translate(0 10.6221) rotate(-26.9205)"/>
</clipPath>
</defs>
</svg>
