<svg width="49" height="46" viewBox="0 0 49 46" fill="none" xmlns="http://www.w3.org/2000/svg">
<path d="M46 44C46.4154 43.7217 46.4153 43.7216 46.4153 43.7215L46.4151 43.7212L46.4143 43.7201L46.4114 43.7157L46.4 43.6988L46.3557 43.6331C46.3168 43.5755 46.2593 43.4906 46.1848 43.3813C46.0358 43.1626 45.8186 42.846 45.5453 42.4532C44.999 41.6677 44.2281 40.577 43.3296 39.3558C41.5366 36.9189 39.221 33.9421 37.1635 31.8379C35.2984 29.9306 32.6479 27.78 30.4775 26.1148C29.3895 25.2801 28.4172 24.5636 27.7166 24.0556C27.4859 23.8883 27.2846 23.7436 27.1183 23.6246C27.2498 23.5144 27.4045 23.3843 27.5791 23.2364C28.1771 22.7301 29.01 22.0155 29.9498 21.1823C31.8258 19.5191 34.1413 17.3713 35.864 15.4597C38.0014 13.0879 40.6375 9.79463 42.7342 7.10149C43.7837 5.75344 44.7002 4.55306 45.3543 3.68965C45.6814 3.25791 45.9429 2.91035 46.1227 2.67062C46.2127 2.55076 46.2822 2.45784 46.3292 2.39484L46.3828 2.32313L46.3964 2.30479L46.3999 2.30012L46.4008 2.29893L46.401 2.29862C46.4011 2.29854 46.4011 2.2985 46 2L46.4011 2.2985L47.0717 1.39741L45.9534 1.50218L24.9462 3.47021L3.93898 4.78222L3.41499 4.81495L3.47324 5.33673L3.97015 5.28125L3.47324 5.3368L3.47328 5.33712L3.47344 5.33853L3.47409 5.34441L3.47671 5.36817L3.48695 5.46253C3.4959 5.54579 3.509 5.66912 3.52547 5.8288C3.55841 6.14816 3.60486 6.61284 3.65877 7.19298C3.76659 8.35342 3.90418 9.97507 4.02317 11.8193C4.26161 15.5147 4.42354 20.0778 4.12859 23.6147C3.80259 27.524 3.1502 31.1107 2.57873 33.7212C2.29313 35.0259 2.02806 36.0853 1.83467 36.8176C1.73798 37.1838 1.65924 37.468 1.60484 37.6602C1.57764 37.7563 1.55653 37.8293 1.54231 37.878L1.52625 37.9327L1.52228 37.9461L1.52134 37.9492L1.52114 37.9499L1.52111 37.95L1.5211 37.95L1.37979 38.4207L1.84805 38.5701L2 38.0938C1.84805 38.5701 1.84814 38.5701 1.84828 38.5702L1.84883 38.5704L1.85088 38.571L1.85878 38.5735L1.88953 38.5833L2.00923 38.6209C2.11428 38.6539 2.26903 38.7021 2.46852 38.7635C2.86748 38.8862 3.44548 39.0614 4.16293 39.2721C5.5976 39.6934 7.59109 40.2566 9.8264 40.8242C14.2823 41.9557 19.7504 43.1182 23.6628 43.1874C28.0086 43.2643 33.5802 43.5917 38.0709 43.9004C40.3151 44.0547 42.2871 44.2042 43.698 44.3151C44.4035 44.3705 44.9686 44.4163 45.3572 44.4482C45.5516 44.4642 45.7018 44.4767 45.8033 44.4852L45.9186 44.4949L45.9479 44.4974L45.9552 44.498L45.957 44.4981L45.9575 44.4982C45.9576 44.4982 45.9576 44.4982 46 44ZM46 44L46.4154 43.7217L46.9948 44.5865L45.9576 44.4982L46 44Z" fill="#04BA95" stroke="white"/>
</svg>
