<svg width="49" height="46" viewBox="0 0 49 46" fill="none" xmlns="http://www.w3.org/2000/svg">
<path d="M3 44C2.58657 43.7188 2.58661 43.7187 2.58667 43.7187L2.58688 43.7183L2.58765 43.7172L2.59062 43.7128L2.60216 43.6959L2.64714 43.6302C2.68666 43.5726 2.74502 43.4877 2.82066 43.3784C2.97194 43.1597 3.19242 42.8431 3.46979 42.4503C4.02444 41.6648 4.80703 40.5741 5.71912 39.3529C7.53926 36.916 9.88987 33.9393 11.9785 31.8353C13.8715 29.9282 16.562 27.7777 18.7652 26.1126C19.8696 25.278 20.8566 24.5614 21.5677 24.0535C21.8007 23.8871 22.0041 23.743 22.1724 23.6245C22.0396 23.5148 21.8836 23.3855 21.7077 23.2388C21.1007 22.7325 20.2552 22.0179 19.3013 21.1848C17.3969 19.5216 15.0464 17.3739 13.2978 15.4625C11.128 13.0908 8.45198 9.79751 6.32348 7.10436C5.25807 5.75631 4.32775 4.55594 3.66373 3.69253C3.3317 3.2608 3.0662 2.91324 2.88363 2.67351C2.79235 2.55364 2.72179 2.46073 2.67401 2.39773L2.61967 2.32602L2.6058 2.30768L2.60227 2.30301L2.60137 2.30182L2.60113 2.3015C2.60108 2.30143 2.60104 2.30139 3 2L2.60104 2.30139L1.91865 1.39808L3.04595 1.50212L24.3717 3.47016L45.6974 4.78219L46.2367 4.81538L46.1618 5.35053L45.6667 5.28125L46.1618 5.3506L46.1618 5.35093L46.1616 5.35236L46.1608 5.35825L46.1575 5.38203L46.1445 5.47634C46.1332 5.55953 46.1166 5.68274 46.0955 5.84224C46.0532 6.16124 45.9931 6.62538 45.9217 7.20493C45.7788 8.36414 45.5907 9.98439 45.4099 11.828C45.0477 15.5213 44.7172 20.0881 44.8331 23.6399C44.9574 27.4507 45.6181 31.5214 46.2509 34.6483C46.567 36.2097 46.8751 37.5316 47.1042 38.4626C47.2187 38.928 47.3134 39.2956 47.3793 39.5463C47.4122 39.6716 47.438 39.7678 47.4555 39.8323L47.4753 39.9051L47.4803 39.9232L47.4815 39.9276L47.4817 39.9286L47.4818 39.9288L47.6279 40.4553L47.0905 40.5542L47 40.0625C47.0905 40.5542 47.0905 40.5542 47.0903 40.5543L47.0898 40.5544L47.0879 40.5547L47.0803 40.5561L47.0508 40.5615L46.9353 40.5825C46.8338 40.6009 46.6842 40.6278 46.4912 40.662C46.1051 40.7305 45.5452 40.8285 44.849 40.9465C43.4567 41.1824 41.5188 41.4984 39.336 41.8187C34.9777 42.4581 29.6169 43.1188 25.6754 43.1874C21.2633 43.2643 15.607 43.5917 11.0482 43.9004C8.76996 44.0547 6.768 44.2042 5.33566 44.3151C4.61952 44.3706 4.04584 44.4164 3.65128 44.4483C3.45401 44.4643 3.30152 44.4768 3.19841 44.4853L3.08134 44.495L3.05165 44.4974L3.04421 44.498L3.04236 44.4982L3.04191 44.4982C3.04181 44.4982 3.04177 44.4983 3 44ZM3 44L2.58657 43.7188L1.9968 44.5859L3.04177 44.4983L3 44Z" fill="#04BA95" stroke="white"/>
</svg>
