<svg width="253" height="46" viewBox="0 0 253 46" fill="none" xmlns="http://www.w3.org/2000/svg">
<path d="M3.02817 2L3.04309 1.50022L2.58243 1.48648L2.53126 1.94449L3.02817 2ZM3.02817 2C3.04309 1.50022 3.04325 1.50023 3.04358 1.50024L3.04509 1.50028L3.05114 1.50046L3.07526 1.50118L3.17098 1.50401L3.54756 1.51507C3.87903 1.52476 4.36888 1.53897 5.00228 1.55705C6.2691 1.59323 8.11014 1.6449 10.4069 1.70691C15.0004 1.83094 21.4165 1.9963 28.7071 2.16167C43.2893 2.49242 61.3658 2.82308 75.3527 2.82308H164.267C181.105 2.82308 202.667 2.49239 220.021 2.16163C228.697 1.99626 236.321 1.83089 241.776 1.70686C244.503 1.64485 246.688 1.59317 248.192 1.557C248.943 1.53891 249.524 1.5247 249.917 1.51501L250.364 1.50395L250.478 1.50112L250.506 1.5004L250.513 1.50022L250.515 1.50017C250.516 1.50016 250.516 1.50016 250.528 2M3.02817 2C2.53126 1.94449 2.53126 1.94456 2.53124 1.94468L2.53118 1.94522L2.53095 1.94734L2.53001 1.9557L2.52634 1.98871L2.51201 2.11803C2.49944 2.23165 2.48098 2.39917 2.45739 2.6149C2.41021 3.04635 2.34251 3.67068 2.26037 4.44247C2.0961 5.986 1.87406 8.11963 1.64301 10.48C1.18135 15.1964 0.682198 20.8329 0.537662 24.4725C0.356494 29.0344 0.85904 33.8652 1.40381 37.546C1.67651 39.3885 1.96049 40.9474 2.17644 42.0463C2.28443 42.5958 2.37545 43.0305 2.4396 43.3284C2.47167 43.4774 2.49703 43.5921 2.51443 43.6699L2.53442 43.7586L2.53966 43.7814L2.54103 43.7874L2.54141 43.789L2.54151 43.7895C2.54154 43.7896 2.54156 43.7897 3.02868 43.6769M250.528 2C251.027 1.96904 251.027 1.96913 251.027 1.96931L251.028 1.97012L251.028 1.97332L251.029 1.98604L251.032 2.03626L251.044 2.2324L251.09 2.97948C251.129 3.62456 251.185 4.54952 251.252 5.66913C251.386 7.90831 251.563 10.9263 251.737 14.0413C252.083 20.2509 252.417 26.9016 252.354 28.4815L252.354 28.491C252.184 31.3633 251.515 35.3605 250.894 38.6213C250.583 40.2556 250.282 41.7119 250.059 42.7596C249.947 43.2836 249.855 43.7055 249.791 43.9967C249.759 44.1423 249.734 44.2552 249.717 44.3318L249.697 44.419L249.692 44.4414L249.691 44.4471L249.69 44.4486L249.69 44.449C249.69 44.4491 249.69 44.4492 249.203 44.3385M250.528 2L250.516 1.50016L250.998 1.48803L251.027 1.96904L250.528 2ZM3.02868 43.6769L2.54156 43.7897L2.6291 44.1678L3.01705 44.1768L3.02868 43.6769ZM3.02868 43.6769C3.01705 44.1768 3.01727 44.1768 3.01771 44.1768L3.01967 44.1769L3.02747 44.177L3.0585 44.1777L3.18156 44.1806L3.6655 44.1917C4.09149 44.2013 4.7211 44.2156 5.53565 44.2337C7.16475 44.2698 9.53362 44.3215 12.4929 44.3835C18.4113 44.5076 26.6913 44.673 36.1374 44.8384C55.0289 45.1692 78.5877 45.5 97.2495 45.5H179.528C192.747 45.5 210.168 45.3346 224.283 45.1692C231.341 45.0865 237.573 45.0038 242.04 44.9418C244.273 44.9108 246.066 44.8849 247.3 44.8668L248.718 44.8458L249.085 44.8403L249.179 44.8389L249.202 44.8385L249.208 44.8384L249.21 44.8384C249.21 44.8384 249.21 44.8384 249.203 44.3385M249.203 44.3385L249.21 44.8384L249.603 44.8324L249.69 44.4492L249.203 44.3385Z" fill="#04BA95" stroke="white"/>
</svg>
